<?xml version="1.0" encoding="UTF-8" standalone="no"?>
<!DOCTYPE svg PUBLIC "-//W3C//DTD SVG 1.1//EN"
 "http://www.w3.org/Graphics/SVG/1.1/DTD/svg11.dtd">
<!-- Generated by graphviz version 2.40.1 (20161225.0304)
 -->
<!-- Title: %3 Pages: 1 -->
<svg width="953pt" height="1102pt"
 viewBox="0.00 0.00 953.00 1102.00" xmlns="http://www.w3.org/2000/svg" xmlns:xlink="http://www.w3.org/1999/xlink">
<g id="graph0" class="graph" transform="scale(1 1) rotate(0) translate(4 1098)">
<title>%3</title>
<polygon fill="#ffffff" stroke="transparent" points="-4,4 -4,-1098 949,-1098 949,4 -4,4"/>
<!-- 14 -->
<g id="node1" class="node">
<title>14</title>
<g id="a_node1"><a xlink:title="~">
<polygon fill="#ff0000" stroke="#ff0000" points="485.5,-1094 318.5,-1094 318.5,-1042 485.5,-1042 485.5,-1094"/>
<text text-anchor="middle" x="402" y="-1082" font-family="Arial" font-size="10.00" fill="#ffffff">~:0:&lt;built&#45;in method builtins.exec&gt;</text>
<text text-anchor="middle" x="402" y="-1071" font-family="Arial" font-size="10.00" fill="#ffffff">100.00%</text>
<text text-anchor="middle" x="402" y="-1060" font-family="Arial" font-size="10.00" fill="#ffffff">(0.00%)</text>
<text text-anchor="middle" x="402" y="-1049" font-family="Arial" font-size="10.00" fill="#ffffff">2117×</text>
</a>
</g>
</g>
<!-- 1360 -->
<g id="node2" class="node">
<title>1360</title>
<g id="a_node2"><a xlink:title="./testbed.py">
<polygon fill="#ff0000" stroke="#ff0000" points="454,-1002 350,-1002 350,-950 454,-950 454,-1002"/>
<text text-anchor="middle" x="402" y="-990" font-family="Arial" font-size="10.00" fill="#ffffff">testbed:4:&lt;module&gt;</text>
<text text-anchor="middle" x="402" y="-979" font-family="Arial" font-size="10.00" fill="#ffffff">100.00%</text>
<text text-anchor="middle" x="402" y="-968" font-family="Arial" font-size="10.00" fill="#ffffff">(0.00%)</text>
<text text-anchor="middle" x="402" y="-957" font-family="Arial" font-size="10.00" fill="#ffffff">1×</text>
</a>
</g>
</g>
<!-- 14&#45;&gt;1360 -->
<g id="edge1" class="edge">
<title>14&#45;&gt;1360</title>
<path fill="none" stroke="#ff0000" stroke-width="4" d="M402,-1041.8826C402,-1032.6565 402,-1022.1091 402,-1012.1983"/>
<polygon fill="#ff0000" stroke="#ff0000" stroke-width="4" points="405.5001,-1012.1827 402,-1002.1827 398.5001,-1012.1828 405.5001,-1012.1827"/>
<text text-anchor="middle" x="421.5" y="-1025" font-family="Arial" font-size="10.00" fill="#ff0000">100.00%</text>
<text text-anchor="middle" x="421.5" y="-1014" font-family="Arial" font-size="10.00" fill="#ff0000">1×</text>
</g>
<!-- 23 -->
<g id="node3" class="node">
<title>23</title>
<g id="a_node3"><a xlink:title="./testbed.py">
<polygon fill="#fe0600" stroke="#fe0600" points="448,-910 356,-910 356,-858 448,-858 448,-910"/>
<text text-anchor="middle" x="402" y="-898" font-family="Arial" font-size="10.00" fill="#ffffff">testbed:105:main</text>
<text text-anchor="middle" x="402" y="-887" font-family="Arial" font-size="10.00" fill="#ffffff">99.44%</text>
<text text-anchor="middle" x="402" y="-876" font-family="Arial" font-size="10.00" fill="#ffffff">(0.01%)</text>
<text text-anchor="middle" x="402" y="-865" font-family="Arial" font-size="10.00" fill="#ffffff">1×</text>
</a>
</g>
</g>
<!-- 1360&#45;&gt;23 -->
<g id="edge7" class="edge">
<title>1360&#45;&gt;23</title>
<path fill="none" stroke="#fe0600" stroke-width="3.98" d="M402,-949.8826C402,-940.6565 402,-930.1091 402,-920.1983"/>
<polygon fill="#fe0600" stroke="#fe0600" stroke-width="3.98" points="405.5001,-920.1827 402,-910.1827 398.5001,-920.1828 405.5001,-920.1827"/>
<text text-anchor="middle" x="419" y="-933" font-family="Arial" font-size="10.00" fill="#fe0600">99.44%</text>
<text text-anchor="middle" x="419" y="-922" font-family="Arial" font-size="10.00" fill="#fe0600">1×</text>
</g>
<!-- 75 -->
<g id="node4" class="node">
<title>75</title>
<g id="a_node4"><a xlink:title="./graph.py">
<polygon fill="#0d1274" stroke="#0d1274" points="279.5,-818 182.5,-818 182.5,-766 279.5,-766 279.5,-818"/>
<text text-anchor="middle" x="231" y="-806" font-family="Arial" font-size="10.00" fill="#ffffff">graph:357:controls</text>
<text text-anchor="middle" x="231" y="-795" font-family="Arial" font-size="10.00" fill="#ffffff">1.20%</text>
<text text-anchor="middle" x="231" y="-784" font-family="Arial" font-size="10.00" fill="#ffffff">(0.12%)</text>
<text text-anchor="middle" x="231" y="-773" font-family="Arial" font-size="10.00" fill="#ffffff">1000×</text>
</a>
</g>
</g>
<!-- 23&#45;&gt;75 -->
<g id="edge2" class="edge">
<title>23&#45;&gt;75</title>
<path fill="none" stroke="#0d1274" stroke-width=".5" d="M355.7249,-859.1035C333.101,-846.9315 305.799,-832.2427 282.5138,-819.715"/>
<polygon fill="#0d1274" stroke="#0d1274" stroke-width=".5" points="283.0652,-818.6207 279.4025,-818.0411 281.9044,-820.7782 283.0652,-818.6207"/>
<text text-anchor="middle" x="351" y="-841" font-family="Arial" font-size="10.00" fill="#0d1274">1.20%</text>
<text text-anchor="middle" x="351" y="-830" font-family="Arial" font-size="10.00" fill="#0d1274">1000×</text>
</g>
<!-- 1408 -->
<g id="node5" class="node">
<title>1408</title>
<g id="a_node5"><a xlink:title="/home/flip/.virtualenvs/vp37/lib/python3.7/site&#45;packages/flatland_rl&#45;2.2.1&#45;py3.7.egg/flatland/envs/rail_env.py">
<polygon fill="#0d1977" stroke="#0d1977" points="449,-818 355,-818 355,-766 449,-766 449,-818"/>
<text text-anchor="middle" x="402" y="-806" font-family="Arial" font-size="10.00" fill="#ffffff">rail_env:287:reset</text>
<text text-anchor="middle" x="402" y="-795" font-family="Arial" font-size="10.00" fill="#ffffff">3.00%</text>
<text text-anchor="middle" x="402" y="-784" font-family="Arial" font-size="10.00" fill="#ffffff">(0.00%)</text>
<text text-anchor="middle" x="402" y="-773" font-family="Arial" font-size="10.00" fill="#ffffff">1×</text>
</a>
</g>
</g>
<!-- 23&#45;&gt;1408 -->
<g id="edge3" class="edge">
<title>23&#45;&gt;1408</title>
<path fill="none" stroke="#0d1977" stroke-width=".5" d="M402,-857.8826C402,-846.6171 402,-833.3815 402,-821.7404"/>
<polygon fill="#0d1977" stroke="#0d1977" stroke-width=".5" points="403.2251,-821.6827 402,-818.1827 400.7751,-821.6828 403.2251,-821.6827"/>
<text text-anchor="middle" x="416" y="-841" font-family="Arial" font-size="10.00" fill="#0d1977">3.00%</text>
<text text-anchor="middle" x="416" y="-830" font-family="Arial" font-size="10.00" fill="#0d1977">1×</text>
</g>
<!-- 1989 -->
<g id="node6" class="node">
<title>1989</title>
<g id="a_node6"><a xlink:title="/home/flip/.virtualenvs/vp37/lib/python3.7/site&#45;packages/flatland_rl&#45;2.2.1&#45;py3.7.egg/flatland/envs/rail_env.py">
<polygon fill="#f73301" stroke="#f73301" points="623.5,-818 532.5,-818 532.5,-766 623.5,-766 623.5,-818"/>
<text text-anchor="middle" x="578" y="-806" font-family="Arial" font-size="10.00" fill="#ffffff">rail_env:435:step</text>
<text text-anchor="middle" x="578" y="-795" font-family="Arial" font-size="10.00" fill="#ffffff">94.96%</text>
<text text-anchor="middle" x="578" y="-784" font-family="Arial" font-size="10.00" fill="#ffffff">(0.27%)</text>
<text text-anchor="middle" x="578" y="-773" font-family="Arial" font-size="10.00" fill="#ffffff">1000×</text>
</a>
</g>
</g>
<!-- 23&#45;&gt;1989 -->
<g id="edge4" class="edge">
<title>23&#45;&gt;1989</title>
<path fill="none" stroke="#f73301" stroke-width="3.8" d="M448.2419,-859.8281C471.3724,-847.7372 499.5136,-833.027 523.6691,-820.4002"/>
<polygon fill="#f73301" stroke="#f73301" stroke-width="3.8" points="525.3479,-823.3536 532.3716,-815.8512 522.2024,-817.3361 525.3479,-823.3536"/>
<text text-anchor="middle" x="527" y="-841" font-family="Arial" font-size="10.00" fill="#f73301">94.96%</text>
<text text-anchor="middle" x="527" y="-830" font-family="Arial" font-size="10.00" fill="#f73301">1000×</text>
</g>
<!-- 202 -->
<g id="node8" class="node">
<title>202</title>
<g id="a_node8"><a xlink:title="./graph.py">
<polygon fill="#0d1074" stroke="#0d1074" points="150.5,-726 1.5,-726 1.5,-674 150.5,-674 150.5,-726"/>
<text text-anchor="middle" x="76" y="-714" font-family="Arial" font-size="10.00" fill="#ffffff">graph:340:_is_agent_exploring</text>
<text text-anchor="middle" x="76" y="-703" font-family="Arial" font-size="10.00" fill="#ffffff">0.82%</text>
<text text-anchor="middle" x="76" y="-692" font-family="Arial" font-size="10.00" fill="#ffffff">(0.12%)</text>
<text text-anchor="middle" x="76" y="-681" font-family="Arial" font-size="10.00" fill="#ffffff">500000×</text>
</a>
</g>
</g>
<!-- 75&#45;&gt;202 -->
<g id="edge5" class="edge">
<title>75&#45;&gt;202</title>
<path fill="none" stroke="#0d1074" stroke-width=".5" d="M186.9978,-765.8826C167.033,-754.0325 143.3957,-740.0026 123.0755,-727.9416"/>
<polygon fill="#0d1074" stroke="#0d1074" stroke-width=".5" points="123.4788,-726.7564 119.8437,-726.0234 122.2282,-728.8633 123.4788,-726.7564"/>
<text text-anchor="middle" x="191" y="-749" font-family="Arial" font-size="10.00" fill="#0d1074">0.82%</text>
<text text-anchor="middle" x="191" y="-738" font-family="Arial" font-size="10.00" fill="#0d1074">500000×</text>
</g>
<!-- 1415 -->
<g id="node9" class="node">
<title>1415</title>
<g id="a_node9"><a xlink:title="/home/flip/.virtualenvs/vp37/lib/python3.7/site&#45;packages/flatland_rl&#45;2.2.1&#45;py3.7.egg/flatland/envs/rail_generators.py">
<polygon fill="#0d1274" stroke="#0d1274" points="302.5,-726 159.5,-726 159.5,-674 302.5,-674 302.5,-726"/>
<text text-anchor="middle" x="231" y="-714" font-family="Arial" font-size="10.00" fill="#ffffff">rail_generators:587:generator</text>
<text text-anchor="middle" x="231" y="-703" font-family="Arial" font-size="10.00" fill="#ffffff">1.24%</text>
<text text-anchor="middle" x="231" y="-692" font-family="Arial" font-size="10.00" fill="#ffffff">(0.00%)</text>
<text text-anchor="middle" x="231" y="-681" font-family="Arial" font-size="10.00" fill="#ffffff">1×</text>
</a>
</g>
</g>
<!-- 1408&#45;&gt;1415 -->
<g id="edge8" class="edge">
<title>1408&#45;&gt;1415</title>
<path fill="none" stroke="#0d1274" stroke-width=".5" d="M354.8208,-766.6171C332.4899,-754.6027 305.7616,-740.2226 282.8628,-727.9028"/>
<polygon fill="#0d1274" stroke="#0d1274" stroke-width=".5" points="283.1758,-726.6802 279.5131,-726.1006 282.0149,-728.8377 283.1758,-726.6802"/>
<text text-anchor="middle" x="351" y="-749" font-family="Arial" font-size="10.00" fill="#0d1274">1.24%</text>
<text text-anchor="middle" x="351" y="-738" font-family="Arial" font-size="10.00" fill="#0d1274">1×</text>
</g>
<!-- 1452 -->
<g id="node10" class="node">
<title>1452</title>
<g id="a_node10"><a xlink:title="/home/flip/.virtualenvs/vp37/lib/python3.7/site&#45;packages/flatland_rl&#45;2.2.1&#45;py3.7.egg/flatland/envs/schedule_generators.py">
<polygon fill="#0d1375" stroke="#0d1375" points="486.5,-726 317.5,-726 317.5,-674 486.5,-674 486.5,-726"/>
<text text-anchor="middle" x="402" y="-714" font-family="Arial" font-size="10.00" fill="#ffffff">schedule_generators:100:generator</text>
<text text-anchor="middle" x="402" y="-703" font-family="Arial" font-size="10.00" fill="#ffffff">1.55%</text>
<text text-anchor="middle" x="402" y="-692" font-family="Arial" font-size="10.00" fill="#ffffff">(0.02%)</text>
<text text-anchor="middle" x="402" y="-681" font-family="Arial" font-size="10.00" fill="#ffffff">1×</text>
</a>
</g>
</g>
<!-- 1408&#45;&gt;1452 -->
<g id="edge9" class="edge">
<title>1408&#45;&gt;1452</title>
<path fill="none" stroke="#0d1375" stroke-width=".5" d="M402,-765.8826C402,-754.6171 402,-741.3815 402,-729.7404"/>
<polygon fill="#0d1375" stroke="#0d1375" stroke-width=".5" points="403.2251,-729.6827 402,-726.1827 400.7751,-729.6828 403.2251,-729.6827"/>
<text text-anchor="middle" x="416" y="-749" font-family="Arial" font-size="10.00" fill="#0d1375">1.55%</text>
<text text-anchor="middle" x="416" y="-738" font-family="Arial" font-size="10.00" fill="#0d1375">1×</text>
</g>
<!-- 1855 -->
<g id="node11" class="node">
<title>1855</title>
<g id="a_node11"><a xlink:title="/home/flip/.virtualenvs/vp37/lib/python3.7/site&#45;packages/flatland_rl&#45;2.2.1&#45;py3.7.egg/flatland/envs/rail_env.py">
<polygon fill="#f34c02" stroke="#f34c02" points="654,-726 502,-726 502,-674 654,-674 654,-726"/>
<text text-anchor="middle" x="578" y="-714" font-family="Arial" font-size="10.00" fill="#ffffff">rail_env:804:_get_observations</text>
<text text-anchor="middle" x="578" y="-703" font-family="Arial" font-size="10.00" fill="#ffffff">92.36%</text>
<text text-anchor="middle" x="578" y="-692" font-family="Arial" font-size="10.00" fill="#ffffff">(0.95%)</text>
<text text-anchor="middle" x="578" y="-681" font-family="Arial" font-size="10.00" fill="#ffffff">1001×</text>
</a>
</g>
</g>
<!-- 1408&#45;&gt;1855 -->
<g id="edge10" class="edge">
<title>1408&#45;&gt;1855</title>
<path fill="none" stroke="#0d0d73" stroke-width=".5" d="M449.1648,-767.3457C472.5522,-755.1204 500.8841,-740.3106 525.0174,-727.6954"/>
<polygon fill="#0d0d73" stroke="#0d0d73" stroke-width=".5" points="525.7075,-728.717 528.2418,-726.01 524.5725,-726.5458 525.7075,-728.717"/>
<text text-anchor="middle" x="524" y="-749" font-family="Arial" font-size="10.00" fill="#0d0d73">0.18%</text>
<text text-anchor="middle" x="524" y="-738" font-family="Arial" font-size="10.00" fill="#0d0d73">1×</text>
</g>
<!-- 1989&#45;&gt;1855 -->
<g id="edge22" class="edge">
<title>1989&#45;&gt;1855</title>
<path fill="none" stroke="#f34d02" stroke-width="3.69" d="M578,-765.8826C578,-756.5594 578,-745.8869 578,-735.8856"/>
<polygon fill="#f34d02" stroke="#f34d02" stroke-width="3.69" points="581.3601,-735.7827 578,-726.1827 574.6401,-735.7828 581.3601,-735.7827"/>
<text text-anchor="middle" x="595" y="-749" font-family="Arial" font-size="10.00" fill="#f34d02">92.18%</text>
<text text-anchor="middle" x="595" y="-738" font-family="Arial" font-size="10.00" fill="#f34d02">1000×</text>
</g>
<!-- 1994 -->
<g id="node23" class="node">
<title>1994</title>
<g id="a_node23"><a xlink:title="/home/flip/.virtualenvs/vp37/lib/python3.7/site&#45;packages/flatland_rl&#45;2.2.1&#45;py3.7.egg/flatland/envs/rail_env.py">
<polygon fill="#0d1575" stroke="#0d1575" points="789.5,-542 664.5,-542 664.5,-490 789.5,-490 789.5,-542"/>
<text text-anchor="middle" x="727" y="-530" font-family="Arial" font-size="10.00" fill="#ffffff">rail_env:509:_step_agent</text>
<text text-anchor="middle" x="727" y="-519" font-family="Arial" font-size="10.00" fill="#ffffff">1.86%</text>
<text text-anchor="middle" x="727" y="-508" font-family="Arial" font-size="10.00" fill="#ffffff">(0.27%)</text>
<text text-anchor="middle" x="727" y="-497" font-family="Arial" font-size="10.00" fill="#ffffff">500000×</text>
</a>
</g>
</g>
<!-- 1989&#45;&gt;1994 -->
<g id="edge23" class="edge">
<title>1989&#45;&gt;1994</title>
<path fill="none" stroke="#0d1575" stroke-width=".5" d="M618.8905,-765.9662C633.2563,-755.1018 648.4326,-741.4083 659,-726 698.0017,-669.132 715.7714,-588.4553 722.8876,-545.5365"/>
<polygon fill="#0d1575" stroke="#0d1575" stroke-width=".5" points="724.1087,-545.6592 723.4627,-542.0077 721.6906,-545.265 724.1087,-545.6592"/>
<text text-anchor="middle" x="717" y="-657" font-family="Arial" font-size="10.00" fill="#0d1575">1.86%</text>
<text text-anchor="middle" x="717" y="-646" font-family="Arial" font-size="10.00" fill="#0d1575">500000×</text>
</g>
<!-- 31 -->
<g id="node7" class="node">
<title>31</title>
<g id="a_node7"><a xlink:title="./graph.py">
<polygon fill="#0d0f73" stroke="#0d0f73" points="122,-634 0,-634 0,-582 122,-582 122,-634"/>
<text text-anchor="middle" x="61" y="-622" font-family="Arial" font-size="10.00" fill="#ffffff">graph:292:shortest_path</text>
<text text-anchor="middle" x="61" y="-611" font-family="Arial" font-size="10.00" fill="#ffffff">0.56%</text>
<text text-anchor="middle" x="61" y="-600" font-family="Arial" font-size="10.00" fill="#ffffff">(0.03%)</text>
<text text-anchor="middle" x="61" y="-589" font-family="Arial" font-size="10.00" fill="#ffffff">11700×</text>
</a>
</g>
</g>
<!-- 202&#45;&gt;31 -->
<g id="edge6" class="edge">
<title>202&#45;&gt;31</title>
<path fill="none" stroke="#0d0e73" stroke-width=".5" d="M71.7417,-673.8826C69.905,-662.6171 67.747,-649.3815 65.849,-637.7404"/>
<polygon fill="#0d0e73" stroke="#0d0e73" stroke-width=".5" points="67.0413,-637.44 65.2689,-634.1827 64.6232,-637.8343 67.0413,-637.44"/>
<text text-anchor="middle" x="85" y="-657" font-family="Arial" font-size="10.00" fill="#0d0e73">0.32%</text>
<text text-anchor="middle" x="85" y="-646" font-family="Arial" font-size="10.00" fill="#0d0e73">8700×</text>
</g>
<!-- 1420 -->
<g id="node12" class="node">
<title>1420</title>
<g id="a_node12"><a xlink:title="/home/flip/.virtualenvs/vp37/lib/python3.7/site&#45;packages/flatland_rl&#45;2.2.1&#45;py3.7.egg/flatland/envs/rail_generators.py">
<polygon fill="#0d1274" stroke="#0d1274" points="301,-634 131,-634 131,-582 301,-582 301,-634"/>
<text text-anchor="middle" x="216" y="-622" font-family="Arial" font-size="10.00" fill="#ffffff">rail_generators:889:_connect_cities</text>
<text text-anchor="middle" x="216" y="-611" font-family="Arial" font-size="10.00" fill="#ffffff">1.19%</text>
<text text-anchor="middle" x="216" y="-600" font-family="Arial" font-size="10.00" fill="#ffffff">(0.00%)</text>
<text text-anchor="middle" x="216" y="-589" font-family="Arial" font-size="10.00" fill="#ffffff">1×</text>
</a>
</g>
</g>
<!-- 1415&#45;&gt;1420 -->
<g id="edge11" class="edge">
<title>1415&#45;&gt;1420</title>
<path fill="none" stroke="#0d1274" stroke-width=".5" d="M226.7417,-673.8826C224.905,-662.6171 222.747,-649.3815 220.849,-637.7404"/>
<polygon fill="#0d1274" stroke="#0d1274" stroke-width=".5" points="222.0413,-637.44 220.2689,-634.1827 219.6232,-637.8343 222.0413,-637.44"/>
<text text-anchor="middle" x="240" y="-657" font-family="Arial" font-size="10.00" fill="#0d1274">1.19%</text>
<text text-anchor="middle" x="240" y="-646" font-family="Arial" font-size="10.00" fill="#0d1274">1×</text>
</g>
<!-- 1662 -->
<g id="node16" class="node">
<title>1662</title>
<g id="a_node16"><a xlink:title="/home/flip/.virtualenvs/vp37/lib/python3.7/site&#45;packages/flatland_rl&#45;2.2.1&#45;py3.7.egg/flatland/core/transition_map.py">
<polygon fill="#0d1375" stroke="#0d1375" points="494,-634 310,-634 310,-582 494,-582 494,-634"/>
<text text-anchor="middle" x="402" y="-622" font-family="Arial" font-size="10.00" fill="#ffffff">transition_map:358:check_path_exists</text>
<text text-anchor="middle" x="402" y="-611" font-family="Arial" font-size="10.00" fill="#ffffff">1.52%</text>
<text text-anchor="middle" x="402" y="-600" font-family="Arial" font-size="10.00" fill="#ffffff">(0.41%)</text>
<text text-anchor="middle" x="402" y="-589" font-family="Arial" font-size="10.00" fill="#ffffff">1000×</text>
</a>
</g>
</g>
<!-- 1452&#45;&gt;1662 -->
<g id="edge15" class="edge">
<title>1452&#45;&gt;1662</title>
<path fill="none" stroke="#0d1375" stroke-width=".5" d="M402,-673.8826C402,-662.6171 402,-649.3815 402,-637.7404"/>
<polygon fill="#0d1375" stroke="#0d1375" stroke-width=".5" points="403.2251,-637.6827 402,-634.1827 400.7751,-637.6828 403.2251,-637.6827"/>
<text text-anchor="middle" x="416" y="-657" font-family="Arial" font-size="10.00" fill="#0d1375">1.52%</text>
<text text-anchor="middle" x="416" y="-646" font-family="Arial" font-size="10.00" fill="#0d1375">1000×</text>
</g>
<!-- 1462 -->
<g id="node19" class="node">
<title>1462</title>
<g id="a_node19"><a xlink:title="/home/flip/.virtualenvs/vp37/lib/python3.7/site&#45;packages/flatland_rl&#45;2.2.1&#45;py3.7.egg/flatland/core/env_observation_builder.py">
<polygon fill="#f25502" stroke="#f25502" points="684.5,-634 503.5,-634 503.5,-582 684.5,-582 684.5,-634"/>
<text text-anchor="middle" x="594" y="-622" font-family="Arial" font-size="10.00" fill="#ffffff">env_observation_builder:35:get_many</text>
<text text-anchor="middle" x="594" y="-611" font-family="Arial" font-size="10.00" fill="#ffffff">91.41%</text>
<text text-anchor="middle" x="594" y="-600" font-family="Arial" font-size="10.00" fill="#ffffff">(0.15%)</text>
<text text-anchor="middle" x="594" y="-589" font-family="Arial" font-size="10.00" fill="#ffffff">1001×</text>
</a>
</g>
</g>
<!-- 1855&#45;&gt;1462 -->
<g id="edge21" class="edge">
<title>1855&#45;&gt;1462</title>
<path fill="none" stroke="#f25502" stroke-width="3.66" d="M582.5422,-673.8826C584.1636,-664.5594 586.0197,-653.8869 587.759,-643.8856"/>
<polygon fill="#f25502" stroke="#f25502" stroke-width="3.66" points="591.1118,-644.2165 589.4465,-634.1827 584.4912,-643.065 591.1118,-644.2165"/>
<text text-anchor="middle" x="604" y="-657" font-family="Arial" font-size="10.00" fill="#f25502">91.41%</text>
<text text-anchor="middle" x="604" y="-646" font-family="Arial" font-size="10.00" fill="#f25502">1001×</text>
</g>
<!-- 1434 -->
<g id="node13" class="node">
<title>1434</title>
<g id="a_node13"><a xlink:title="/home/flip/.virtualenvs/vp37/lib/python3.7/site&#45;packages/flatland_rl&#45;2.2.1&#45;py3.7.egg/flatland/envs/grid4_generators_utils.py">
<polygon fill="#0d1274" stroke="#0d1274" points="329.5,-542 90.5,-542 90.5,-490 329.5,-490 329.5,-542"/>
<text text-anchor="middle" x="210" y="-530" font-family="Arial" font-size="10.00" fill="#ffffff">grid4_generators_utils:18:connect_rail_in_grid_map</text>
<text text-anchor="middle" x="210" y="-519" font-family="Arial" font-size="10.00" fill="#ffffff">1.19%</text>
<text text-anchor="middle" x="210" y="-508" font-family="Arial" font-size="10.00" fill="#ffffff">(0.00%)</text>
<text text-anchor="middle" x="210" y="-497" font-family="Arial" font-size="10.00" fill="#ffffff">24×</text>
</a>
</g>
</g>
<!-- 1420&#45;&gt;1434 -->
<g id="edge12" class="edge">
<title>1420&#45;&gt;1434</title>
<path fill="none" stroke="#0d1274" stroke-width=".5" d="M214.2967,-581.8826C213.562,-570.6171 212.6988,-557.3815 211.9396,-545.7404"/>
<polygon fill="#0d1274" stroke="#0d1274" stroke-width=".5" points="213.1578,-545.5956 211.7076,-542.1827 210.713,-545.7551 213.1578,-545.5956"/>
<text text-anchor="middle" x="228" y="-565" font-family="Arial" font-size="10.00" fill="#0d1274">1.19%</text>
<text text-anchor="middle" x="228" y="-554" font-family="Arial" font-size="10.00" fill="#0d1274">24×</text>
</g>
<!-- 1440 -->
<g id="node14" class="node">
<title>1440</title>
<g id="a_node14"><a xlink:title="/home/flip/.virtualenvs/vp37/lib/python3.7/site&#45;packages/flatland_rl&#45;2.2.1&#45;py3.7.egg/flatland/core/grid/grid4_astar.py">
<polygon fill="#0d1274" stroke="#0d1274" points="302,-450 194,-450 194,-398 302,-398 302,-450"/>
<text text-anchor="middle" x="248" y="-438" font-family="Arial" font-size="10.00" fill="#ffffff">grid4_astar:40:a_star</text>
<text text-anchor="middle" x="248" y="-427" font-family="Arial" font-size="10.00" fill="#ffffff">1.19%</text>
<text text-anchor="middle" x="248" y="-416" font-family="Arial" font-size="10.00" fill="#ffffff">(0.66%)</text>
<text text-anchor="middle" x="248" y="-405" font-family="Arial" font-size="10.00" fill="#ffffff">24×</text>
</a>
</g>
</g>
<!-- 1434&#45;&gt;1440 -->
<g id="edge13" class="edge">
<title>1434&#45;&gt;1440</title>
<path fill="none" stroke="#0d1274" stroke-width=".5" d="M220.7876,-489.8826C225.4809,-478.52 231.002,-465.1531 235.8401,-453.4397"/>
<polygon fill="#0d1274" stroke="#0d1274" stroke-width=".5" points="236.9814,-453.8853 237.1854,-450.1827 234.717,-452.95 236.9814,-453.8853"/>
<text text-anchor="middle" x="248" y="-473" font-family="Arial" font-size="10.00" fill="#0d1274">1.19%</text>
<text text-anchor="middle" x="248" y="-462" font-family="Arial" font-size="10.00" fill="#0d1274">24×</text>
</g>
<!-- 5978 -->
<g id="node15" class="node">
<title>5978</title>
<g id="a_node15"><a xlink:title="&lt;__array_function__ internals&gt;">
<polygon fill="#0d0f73" stroke="#0d0f73" points="784.5,-328 607.5,-328 607.5,-276 784.5,-276 784.5,-328"/>
<text text-anchor="middle" x="696" y="-316" font-family="Arial" font-size="10.00" fill="#ffffff">&lt;__array_function__ internals&gt;:2:clip</text>
<text text-anchor="middle" x="696" y="-305" font-family="Arial" font-size="10.00" fill="#ffffff">0.58%</text>
<text text-anchor="middle" x="696" y="-294" font-family="Arial" font-size="10.00" fill="#ffffff">(0.01%)</text>
<text text-anchor="middle" x="696" y="-283" font-family="Arial" font-size="10.00" fill="#ffffff">74692×</text>
</a>
</g>
</g>
<!-- 1440&#45;&gt;5978 -->
<g id="edge14" class="edge">
<title>1440&#45;&gt;5978</title>
<path fill="none" stroke="#0d0e73" stroke-width=".5" d="M302.4011,-405.3427C310.2914,-402.7894 318.3352,-400.269 326,-398 419.9588,-370.1858 528.6208,-342.52 603.767,-324.0846"/>
<polygon fill="#0d0e73" stroke="#0d0e73" stroke-width=".5" points="604.2121,-325.2368 607.3198,-323.2137 603.6288,-322.8573 604.2121,-325.2368"/>
<text text-anchor="middle" x="561.5" y="-366" font-family="Arial" font-size="10.00" fill="#0d0e73">0.20%</text>
<text text-anchor="middle" x="561.5" y="-355" font-family="Arial" font-size="10.00" fill="#0d0e73">29952×</text>
</g>
<!-- 5684 -->
<g id="node25" class="node">
<title>5684</title>
<g id="a_node25"><a xlink:title="~">
<polygon fill="#0d1475" stroke="#0d1475" points="945,-236 583,-236 583,-184 945,-184 945,-236"/>
<text text-anchor="middle" x="764" y="-224" font-family="Arial" font-size="10.00" fill="#ffffff">~:0:&lt;built&#45;in method numpy.core._multiarray_umath.implement_array_function&gt;</text>
<text text-anchor="middle" x="764" y="-213" font-family="Arial" font-size="10.00" fill="#ffffff">1.68%</text>
<text text-anchor="middle" x="764" y="-202" font-family="Arial" font-size="10.00" fill="#ffffff">(0.12%)</text>
<text text-anchor="middle" x="764" y="-191" font-family="Arial" font-size="10.00" fill="#ffffff">632954×</text>
</a>
</g>
</g>
<!-- 5978&#45;&gt;5684 -->
<g id="edge29" class="edge">
<title>5978&#45;&gt;5684</title>
<path fill="none" stroke="#0d0f73" stroke-width=".5" d="M715.3042,-275.8826C723.7744,-264.4228 733.7515,-250.9245 742.462,-239.1397"/>
<polygon fill="#0d0f73" stroke="#0d0f73" stroke-width=".5" points="743.5523,-239.7255 744.6475,-236.1827 741.582,-238.2692 743.5523,-239.7255"/>
<text text-anchor="middle" x="754.5" y="-259" font-family="Arial" font-size="10.00" fill="#0d0f73">0.56%</text>
<text text-anchor="middle" x="754.5" y="-248" font-family="Arial" font-size="10.00" fill="#0d0f73">74692×</text>
</g>
<!-- 1762 -->
<g id="node20" class="node">
<title>1762</title>
<g id="a_node20"><a xlink:title="/home/flip/.virtualenvs/vp37/lib/python3.7/site&#45;packages/flatland_rl&#45;2.2.1&#45;py3.7.egg/flatland/core/transition_map.py">
<polygon fill="#0d1174" stroke="#0d1174" points="505,-542 339,-542 339,-490 505,-490 505,-542"/>
<text text-anchor="middle" x="422" y="-530" font-family="Arial" font-size="10.00" fill="#ffffff">transition_map:164:get_transitions</text>
<text text-anchor="middle" x="422" y="-519" font-family="Arial" font-size="10.00" fill="#ffffff">0.95%</text>
<text text-anchor="middle" x="422" y="-508" font-family="Arial" font-size="10.00" fill="#ffffff">(0.18%)</text>
<text text-anchor="middle" x="422" y="-497" font-family="Arial" font-size="10.00" fill="#ffffff">682738×</text>
</a>
</g>
</g>
<!-- 1662&#45;&gt;1762 -->
<g id="edge18" class="edge">
<title>1662&#45;&gt;1762</title>
<path fill="none" stroke="#0d1074" stroke-width=".5" d="M407.6777,-581.8826C410.1267,-570.6171 413.004,-557.3815 415.5347,-545.7404"/>
<polygon fill="#0d1074" stroke="#0d1074" stroke-width=".5" points="416.7616,-545.8631 416.3081,-542.1827 414.3675,-545.3426 416.7616,-545.8631"/>
<text text-anchor="middle" x="433" y="-565" font-family="Arial" font-size="10.00" fill="#0d1074">0.86%</text>
<text text-anchor="middle" x="433" y="-554" font-family="Arial" font-size="10.00" fill="#0d1074">636000×</text>
</g>
<!-- 1461 -->
<g id="node17" class="node">
<title>1461</title>
<g id="a_node17"><a xlink:title="/home/flip/.virtualenvs/vp37/lib/python3.7/site&#45;packages/flatland_rl&#45;2.2.1&#45;py3.7.egg/flatland/envs/observations.py">
<polygon fill="#f25602" stroke="#f25602" points="626.5,-542 519.5,-542 519.5,-490 626.5,-490 626.5,-542"/>
<text text-anchor="middle" x="573" y="-530" font-family="Arial" font-size="10.00" fill="#ffffff">observations:558:get</text>
<text text-anchor="middle" x="573" y="-519" font-family="Arial" font-size="10.00" fill="#ffffff">91.26%</text>
<text text-anchor="middle" x="573" y="-508" font-family="Arial" font-size="10.00" fill="#ffffff">(84.20%)</text>
<text text-anchor="middle" x="573" y="-497" font-family="Arial" font-size="10.00" fill="#ffffff">500500×</text>
</a>
</g>
</g>
<!-- 6232 -->
<g id="node18" class="node">
<title>6232</title>
<g id="a_node18"><a xlink:title="~">
<polygon fill="#0d2c7c" stroke="#0d2c7c" points="627.5,-450 458.5,-450 458.5,-398 627.5,-398 627.5,-450"/>
<text text-anchor="middle" x="543" y="-438" font-family="Arial" font-size="10.00" fill="#ffffff">~:0:&lt;built&#45;in method numpy.zeros&gt;</text>
<text text-anchor="middle" x="543" y="-427" font-family="Arial" font-size="10.00" fill="#ffffff">7.06%</text>
<text text-anchor="middle" x="543" y="-416" font-family="Arial" font-size="10.00" fill="#ffffff">(7.06%)</text>
<text text-anchor="middle" x="543" y="-405" font-family="Arial" font-size="10.00" fill="#ffffff">788316×</text>
</a>
</g>
</g>
<!-- 1461&#45;&gt;6232 -->
<g id="edge16" class="edge">
<title>1461&#45;&gt;6232</title>
<path fill="none" stroke="#0d2c7c" stroke-width=".5" d="M564.4834,-489.8826C560.8099,-478.6171 556.494,-465.3815 552.6979,-453.7404"/>
<polygon fill="#0d2c7c" stroke="#0d2c7c" stroke-width=".5" points="553.7876,-453.1305 551.5378,-450.1827 551.4583,-453.8901 553.7876,-453.1305"/>
<text text-anchor="middle" x="580" y="-473" font-family="Arial" font-size="10.00" fill="#0d2c7c">7.06%</text>
<text text-anchor="middle" x="580" y="-462" font-family="Arial" font-size="10.00" fill="#0d2c7c">788256×</text>
</g>
<!-- 1462&#45;&gt;1461 -->
<g id="edge17" class="edge">
<title>1462&#45;&gt;1461</title>
<path fill="none" stroke="#f25602" stroke-width="3.65" d="M588.0384,-581.8826C585.8881,-572.4623 583.4234,-561.6644 581.12,-551.5732"/>
<polygon fill="#f25602" stroke="#f25602" stroke-width="3.65" points="584.3887,-550.7943 578.9765,-542.1827 577.8372,-552.2898 584.3887,-550.7943"/>
<text text-anchor="middle" x="604" y="-565" font-family="Arial" font-size="10.00" fill="#f25602">91.26%</text>
<text text-anchor="middle" x="604" y="-554" font-family="Arial" font-size="10.00" fill="#f25602">500500×</text>
</g>
<!-- 1863 -->
<g id="node22" class="node">
<title>1863</title>
<g id="a_node22"><a xlink:title="/home/flip/.virtualenvs/vp37/lib/python3.7/site&#45;packages/flatland_rl&#45;2.2.1&#45;py3.7.egg/flatland/core/grid/grid4.py">
<polygon fill="#0d1074" stroke="#0d1074" points="449,-450 331,-450 331,-398 449,-398 449,-450"/>
<text text-anchor="middle" x="390" y="-438" font-family="Arial" font-size="10.00" fill="#ffffff">grid4:66:get_transitions</text>
<text text-anchor="middle" x="390" y="-427" font-family="Arial" font-size="10.00" fill="#ffffff">0.78%</text>
<text text-anchor="middle" x="390" y="-416" font-family="Arial" font-size="10.00" fill="#ffffff">(0.78%)</text>
<text text-anchor="middle" x="390" y="-405" font-family="Arial" font-size="10.00" fill="#ffffff">688166×</text>
</a>
</g>
</g>
<!-- 1762&#45;&gt;1863 -->
<g id="edge20" class="edge">
<title>1762&#45;&gt;1863</title>
<path fill="none" stroke="#0d1074" stroke-width=".5" d="M412.9157,-489.8826C408.9972,-478.6171 404.3936,-465.3815 400.3445,-453.7404"/>
<polygon fill="#0d1074" stroke="#0d1074" stroke-width=".5" points="401.4139,-453.086 399.107,-450.1827 399.0999,-453.8909 401.4139,-453.086"/>
<text text-anchor="middle" x="428" y="-473" font-family="Arial" font-size="10.00" fill="#0d1074">0.77%</text>
<text text-anchor="middle" x="428" y="-462" font-family="Arial" font-size="10.00" fill="#0d1074">682738×</text>
</g>
<!-- 1761 -->
<g id="node21" class="node">
<title>1761</title>
<g id="a_node21"><a xlink:title="/home/flip/.virtualenvs/vp37/lib/python3.7/site&#45;packages/flatland_rl&#45;2.2.1&#45;py3.7.egg/flatland/envs/rail_env.py">
<polygon fill="#0d1174" stroke="#0d1174" points="817,-450 637,-450 637,-398 817,-398 817,-450"/>
<text text-anchor="middle" x="727" y="-438" font-family="Arial" font-size="10.00" fill="#ffffff">rail_env:683:_check_action_on_agent</text>
<text text-anchor="middle" x="727" y="-427" font-family="Arial" font-size="10.00" fill="#ffffff">1.02%</text>
<text text-anchor="middle" x="727" y="-416" font-family="Arial" font-size="10.00" fill="#ffffff">(0.09%)</text>
<text text-anchor="middle" x="727" y="-405" font-family="Arial" font-size="10.00" fill="#ffffff">44316×</text>
</a>
</g>
</g>
<!-- 1761&#45;&gt;5978 -->
<g id="edge19" class="edge">
<title>1761&#45;&gt;5978</title>
<path fill="none" stroke="#0d0e73" stroke-width=".5" d="M701.3773,-397.695C699.6357,-394.9102 698.1279,-391.996 697,-389 690.2215,-370.9947 689.9405,-349.3702 691.3694,-332.1847"/>
<polygon fill="#0d0e73" stroke="#0d0e73" stroke-width=".5" points="692.62,-331.9627 691.7209,-328.3652 690.1803,-331.7382 692.62,-331.9627"/>
<text text-anchor="middle" x="713.5" y="-366" font-family="Arial" font-size="10.00" fill="#0d0e73">0.37%</text>
<text text-anchor="middle" x="713.5" y="-355" font-family="Arial" font-size="10.00" fill="#0d0e73">44316×</text>
</g>
<!-- 1994&#45;&gt;1761 -->
<g id="edge24" class="edge">
<title>1994&#45;&gt;1761</title>
<path fill="none" stroke="#0d1174" stroke-width=".5" d="M727,-489.8826C727,-478.6171 727,-465.3815 727,-453.7404"/>
<polygon fill="#0d1174" stroke="#0d1174" stroke-width=".5" points="728.2251,-453.6827 727,-450.1827 725.7751,-453.6828 728.2251,-453.6827"/>
<text text-anchor="middle" x="743.5" y="-473" font-family="Arial" font-size="10.00" fill="#0d1174">1.02%</text>
<text text-anchor="middle" x="743.5" y="-462" font-family="Arial" font-size="10.00" fill="#0d1174">44316×</text>
</g>
<!-- 5950 -->
<g id="node24" class="node">
<title>5950</title>
<g id="a_node24"><a xlink:title="&lt;__array_function__ internals&gt;">
<polygon fill="#0d1074" stroke="#0d1074" points="927.5,-389 734.5,-389 734.5,-337 927.5,-337 927.5,-389"/>
<text text-anchor="middle" x="831" y="-377" font-family="Arial" font-size="10.00" fill="#ffffff">&lt;__array_function__ internals&gt;:2:isclose</text>
<text text-anchor="middle" x="831" y="-366" font-family="Arial" font-size="10.00" fill="#ffffff">0.79%</text>
<text text-anchor="middle" x="831" y="-355" font-family="Arial" font-size="10.00" fill="#ffffff">(0.01%)</text>
<text text-anchor="middle" x="831" y="-344" font-family="Arial" font-size="10.00" fill="#ffffff">65126×</text>
</a>
</g>
</g>
<!-- 1994&#45;&gt;5950 -->
<g id="edge25" class="edge">
<title>1994&#45;&gt;5950</title>
<path fill="none" stroke="#0d0f73" stroke-width=".5" d="M781.4503,-489.6898C797.0443,-479.4723 812.4022,-466.2558 822,-450 832.0483,-432.9811 834.2055,-410.7788 833.8982,-393.0631"/>
<polygon fill="#0d0f73" stroke="#0d0f73" stroke-width=".5" points="835.1105,-392.5893 833.7885,-389.1248 832.6615,-392.6576 835.1105,-392.5893"/>
<text text-anchor="middle" x="831.5" y="-473" font-family="Arial" font-size="10.00" fill="#0d0f73">0.53%</text>
<text text-anchor="middle" x="831.5" y="-462" font-family="Arial" font-size="10.00" fill="#0d0f73">43381×</text>
</g>
<!-- 5950&#45;&gt;5684 -->
<g id="edge28" class="edge">
<title>5950&#45;&gt;5684</title>
<path fill="none" stroke="#0d1074" stroke-width=".5" d="M819.4823,-336.6984C807.6537,-309.6868 789.2787,-267.726 776.9518,-239.5765"/>
<polygon fill="#0d1074" stroke="#0d1074" stroke-width=".5" points="778.0055,-238.9287 775.4793,-236.214 775.7612,-239.9115 778.0055,-238.9287"/>
<text text-anchor="middle" x="831.5" y="-305" font-family="Arial" font-size="10.00" fill="#0d1074">0.77%</text>
<text text-anchor="middle" x="831.5" y="-294" font-family="Arial" font-size="10.00" fill="#0d1074">65126×</text>
</g>
<!-- 5979 -->
<g id="node26" class="node">
<title>5979</title>
<g id="a_node26"><a xlink:title="/home/flip/.virtualenvs/vp37/lib/python3.7/site&#45;packages/numpy/core/fromnumeric.py">
<polygon fill="#0d0f73" stroke="#0d0f73" points="730.5,-144 617.5,-144 617.5,-92 730.5,-92 730.5,-144"/>
<text text-anchor="middle" x="674" y="-132" font-family="Arial" font-size="10.00" fill="#ffffff">fromnumeric:2021:clip</text>
<text text-anchor="middle" x="674" y="-121" font-family="Arial" font-size="10.00" fill="#ffffff">0.55%</text>
<text text-anchor="middle" x="674" y="-110" font-family="Arial" font-size="10.00" fill="#ffffff">(0.02%)</text>
<text text-anchor="middle" x="674" y="-99" font-family="Arial" font-size="10.00" fill="#ffffff">74692×</text>
</a>
</g>
</g>
<!-- 5684&#45;&gt;5979 -->
<g id="edge26" class="edge">
<title>5684&#45;&gt;5979</title>
<path fill="none" stroke="#0d0f73" stroke-width=".5" d="M738.4503,-183.8826C727.1447,-172.3257 713.8109,-158.6956 702.2135,-146.8404"/>
<polygon fill="#0d0f73" stroke="#0d0f73" stroke-width=".5" points="702.9368,-145.828 699.6135,-144.1827 701.1854,-147.5413 702.9368,-145.828"/>
<text text-anchor="middle" x="745.5" y="-167" font-family="Arial" font-size="10.00" fill="#0d0f73">0.55%</text>
<text text-anchor="middle" x="745.5" y="-156" font-family="Arial" font-size="10.00" fill="#0d0f73">74692×</text>
</g>
<!-- 6023 -->
<g id="node27" class="node">
<title>6023</title>
<g id="a_node27"><a xlink:title="/home/flip/.virtualenvs/vp37/lib/python3.7/site&#45;packages/numpy/core/numeric.py">
<polygon fill="#0d1074" stroke="#0d1074" points="848.5,-144 739.5,-144 739.5,-92 848.5,-92 848.5,-144"/>
<text text-anchor="middle" x="794" y="-132" font-family="Arial" font-size="10.00" fill="#ffffff">numeric:2167:isclose</text>
<text text-anchor="middle" x="794" y="-121" font-family="Arial" font-size="10.00" fill="#ffffff">0.76%</text>
<text text-anchor="middle" x="794" y="-110" font-family="Arial" font-size="10.00" fill="#ffffff">(0.08%)</text>
<text text-anchor="middle" x="794" y="-99" font-family="Arial" font-size="10.00" fill="#ffffff">65126×</text>
</a>
</g>
</g>
<!-- 5684&#45;&gt;6023 -->
<g id="edge27" class="edge">
<title>5684&#45;&gt;6023</title>
<path fill="none" stroke="#0d1074" stroke-width=".5" d="M772.5166,-183.8826C776.1901,-172.6171 780.506,-159.3815 784.3021,-147.7404"/>
<polygon fill="#0d1074" stroke="#0d1074" stroke-width=".5" points="785.5417,-147.8901 785.4622,-144.1827 783.2124,-147.1305 785.5417,-147.8901"/>
<text text-anchor="middle" x="798.5" y="-167" font-family="Arial" font-size="10.00" fill="#0d1074">0.76%</text>
<text text-anchor="middle" x="798.5" y="-156" font-family="Arial" font-size="10.00" fill="#0d1074">65126×</text>
</g>
<!-- 6064 -->
<g id="node28" class="node">
<title>6064</title>
<g id="a_node28"><a xlink:title="/home/flip/.virtualenvs/vp37/lib/python3.7/site&#45;packages/numpy/core/fromnumeric.py">
<polygon fill="#0d0f74" stroke="#0d0f74" points="739.5,-52 608.5,-52 608.5,0 739.5,0 739.5,-52"/>
<text text-anchor="middle" x="674" y="-40" font-family="Arial" font-size="10.00" fill="#ffffff">fromnumeric:55:_wrapfunc</text>
<text text-anchor="middle" x="674" y="-29" font-family="Arial" font-size="10.00" fill="#ffffff">0.61%</text>
<text text-anchor="middle" x="674" y="-18" font-family="Arial" font-size="10.00" fill="#ffffff">(0.03%)</text>
<text text-anchor="middle" x="674" y="-7" font-family="Arial" font-size="10.00" fill="#ffffff">120659×</text>
</a>
</g>
</g>
<!-- 5979&#45;&gt;6064 -->
<g id="edge30" class="edge">
<title>5979&#45;&gt;6064</title>
<path fill="none" stroke="#0d0f73" stroke-width=".5" d="M674,-91.8826C674,-80.6171 674,-67.3815 674,-55.7404"/>
<polygon fill="#0d0f73" stroke="#0d0f73" stroke-width=".5" points="675.2251,-55.6827 674,-52.1827 672.7751,-55.6828 675.2251,-55.6827"/>
<text text-anchor="middle" x="690.5" y="-75" font-family="Arial" font-size="10.00" fill="#0d0f73">0.53%</text>
<text text-anchor="middle" x="690.5" y="-64" font-family="Arial" font-size="10.00" fill="#0d0f73">74692×</text>
</g>
</g>
</svg>
